<svg version="1.2" xmlns="http://www.w3.org/2000/svg" viewBox="0 0 451 141" width="451" height="141"><style>.a{fill:#191248}.b{fill:#f16822}</style><path class="a" d="m23.5 64.9c-3.9 0-7.6-0.5-11.2-1.6-3.6-1-6.5-2.4-8.6-4.1l3.8-8.5c2.1 1.5 4.6 2.7 7.4 3.7 2.9 1 5.7 1.4 8.7 1.4 2.2 0 4-0.2 5.4-0.7 1.4-0.4 2.4-1.1 3-1.8 0.6-0.8 1-1.7 1-2.7 0-1.3-0.5-2.3-1.5-3.1-1-0.8-2.4-1.4-4-1.9-1.6-0.5-3.5-1-5.5-1.4-2-0.4-4-1-6.1-1.6-2.1-0.6-3.9-1.5-5.5-2.5-1.7-1-3-2.4-4.1-4-1.1-1.6-1.6-3.8-1.6-6.4 0-2.8 0.8-5.3 2.3-7.6 1.5-2.3 3.8-4.1 6.8-5.5 3-1.4 6.9-2.1 11.5-2.1 3.1 0 6.1 0.4 9.1 1.1 3 0.7 5.6 1.8 7.9 3.2l-3.5 8.6c-2.3-1.3-4.6-2.3-6.8-2.9-2.3-0.6-4.5-0.9-6.7-0.9-2.2 0-4 0.3-5.4 0.8-1.4 0.5-2.4 1.2-3 2-0.6 0.8-0.9 1.8-0.9 2.8q0 2 1.5 3c1 0.8 2.4 1.4 4 1.8 1.7 0.5 3.5 0.9 5.5 1.4 2 0.5 4 1 6.1 1.6 2 0.6 3.9 1.4 5.5 2.4 1.7 1 3 2.4 4.1 4 1.1 1.6 1.6 3.8 1.6 6.3 0 2.7-0.8 5.2-2.3 7.5-1.5 2.3-3.8 4.1-6.9 5.5-3.1 1.5-7 2.2-11.6 2.2z"/><path class="a" d="m56.6 21.3c-2 0-3.6-0.6-4.9-1.7-1.3-1.2-1.9-2.6-1.9-4.3 0-1.7 0.6-3.2 1.9-4.3 1.3-1.2 2.9-1.7 4.9-1.7 2 0 3.6 0.5 4.9 1.6 1.3 1.1 1.9 2.5 1.9 4.2q0 2.7-1.8 4.5c-1.4 1.1-3 1.7-5 1.7zm-5.5 42.7v-37.5h10.9v37.5z"/><path class="a" d="m72.1 64v-37.5h10.4v10.2l-2-3c1.3-2.6 3.1-4.5 5.5-5.8 2.4-1.3 5.1-2 8.2-2 3.4 0 6.4 0.9 9 2.6 2.6 1.7 4.3 4.4 5.1 8l-3.8-1c1.3-2.9 3.3-5.2 6-7 2.8-1.7 5.9-2.6 9.5-2.6 3 0 5.6 0.6 7.9 1.8q3.4 1.8 5.4 5.4c1.3 2.4 2 5.6 2 9.4v21.5h-10.9v-19.8c0-3-0.6-5.2-1.9-6.7-1.3-1.4-3-2.2-5.3-2.2-1.6 0-3 0.4-4.2 1.1-1.3 0.7-2.2 1.8-2.9 3.2-0.7 1.4-1 3.3-1 5.5v18.9h-10.9v-19.8c0-3-0.6-5.2-1.8-6.7-1.2-1.4-3-2.2-5.3-2.2-1.6 0-3 0.4-4.2 1.1-1.2 0.7-2.2 1.8-2.9 3.2-0.7 1.4-1 3.3-1 5.5v18.9z"/><path class="a" d="m145.2 77.6v-51h10.4v7.7l-0.2 11.1 0.7 11.1v21.1zm22.1-13c-3.2 0-5.9-0.7-8.3-2.1-2.4-1.4-4.2-3.5-5.5-6.4-1.3-2.9-2-6.5-2-10.8 0-4.4 0.6-8 1.9-10.9q2-4.2 5.4-6.3c2.4-1.4 5.2-2.1 8.5-2.1 3.5 0 6.7 0.8 9.5 2.4 2.8 1.6 5 3.8 6.7 6.7 1.6 2.9 2.5 6.3 2.5 10.2 0 3.9-0.8 7.4-2.5 10.2-1.6 2.9-3.9 5.1-6.7 6.7-2.8 1.6-5.9 2.4-9.5 2.4zm-1.9-8.9c1.8 0 3.4-0.4 4.8-1.3 1.4-0.8 2.6-2 3.4-3.6 0.9-1.6 1.3-3.4 1.3-5.5 0-2.2-0.4-4-1.3-5.6-0.9-1.5-2-2.7-3.4-3.6-1.4-0.8-3-1.3-4.8-1.3-1.8 0-3.4 0.4-4.9 1.3-1.4 0.8-2.6 2-3.4 3.6-0.8 1.5-1.3 3.4-1.3 5.6 0 2.1 0.4 4 1.3 5.5 0.8 1.6 2 2.8 3.4 3.6 1.5 0.9 3.1 1.3 4.9 1.3z"/><path class="a" d="m193.2 64v-51.7h10.9v51.7z"/><path class="a" d="m219 78.1c-2 0-3.9-0.3-5.8-0.9-1.9-0.6-3.5-1.4-4.7-2.5l4-7.7c0.8 0.7 1.8 1.3 2.9 1.7 1.1 0.4 2.2 0.6 3.2 0.6 1.5 0 2.8-0.4 3.7-1.1 0.9-0.7 1.7-1.9 2.5-3.6l2-4.6 0.8-1.2 13.4-32.3h10.5l-16.9 39.8c-1.2 3-2.6 5.4-4.1 7.1-1.6 1.7-3.3 2.9-5.2 3.6-2 0.8-4.1 1.1-6.3 1.1zm6.4-12.6l-16.7-38.9h11.2l13 31.3z"/><path class="b" d="m280 123.1c-4 0-7.5-0.8-10.6-2.5-3.1-1.7-5.5-4-7.3-6.9q-2.7-4.3-2.7-9.9c0-3.8 0.9-7.1 2.7-10 1.8-2.9 4.2-5.2 7.3-6.8 3.1-1.6 6.6-2.5 10.6-2.5 3.9 0 7.5 0.8 10.6 2.5 3.1 1.6 5.5 3.9 7.3 6.8 1.8 2.9 2.6 6.2 2.6 10 0 3.7-0.9 7-2.6 9.9-1.8 2.9-4.2 5.2-7.3 6.9-3.1 1.6-6.6 2.5-10.6 2.5zm0-8.9c1.8 0 3.4-0.4 4.9-1.3 1.4-0.8 2.6-2 3.4-3.6 0.8-1.6 1.3-3.4 1.3-5.5 0-2.2-0.4-4-1.3-5.6-0.8-1.5-2-2.7-3.4-3.6-1.4-0.8-3.1-1.3-4.9-1.3-1.8 0-3.4 0.4-4.9 1.3-1.4 0.8-2.6 2-3.4 3.6-0.9 1.5-1.3 3.4-1.3 5.6 0 2.1 0.4 4 1.3 5.5 0.9 1.6 2 2.8 3.4 3.6 1.5 0.8 3.1 1.3 4.9 1.3z"/><path class="b" d="m301.3 93.4v-8.4h26v8.4zm19.8 29.7c-4.4 0-7.8-1.1-10.3-3.4-2.5-2.3-3.7-5.6-3.7-10.1v-32.9h10.9v32.7c0 1.6 0.4 2.8 1.3 3.7 0.8 0.9 2 1.3 3.4 1.3 1.7 0 3.2-0.5 4.4-1.4l2.9 7.7c-1.1 0.8-2.5 1.4-4 1.8-1.6 0.4-3.2 0.6-4.9 0.6z"/><path class="b" d="m341.5 79.8c-2 0-3.6-0.6-4.9-1.7-1.3-1.2-1.9-2.6-1.9-4.3 0-1.7 0.6-3.2 1.9-4.3 1.3-1.2 2.9-1.7 4.9-1.7 2 0 3.6 0.5 4.9 1.6 1.3 1.1 1.9 2.5 1.9 4.2q0 2.7-1.8 4.5c-1.3 1.1-2.9 1.7-5 1.7zm-5.4 42.7v-37.5h10.9v37.5z"/><path class="b" d="m357.1 122.5v-37.5h10.4v10.4l-2-3.1c1.3-2.5 3.3-4.4 5.8-5.8 2.5-1.3 5.4-2 8.6-2 3 0 5.6 0.6 8 1.8 2.3 1.2 4.2 3 5.5 5.4 1.3 2.4 2 5.6 2 9.4v21.5h-10.9v-19.8c0-3-0.7-5.2-2-6.7-1.3-1.4-3.2-2.2-5.6-2.2-1.7 0-3.3 0.4-4.6 1.1-1.4 0.7-2.4 1.8-3.2 3.3q-1.2 2.2-1.2 5.7v18.5z"/><path class="b" d="m421.4 120.7c-3.5 0-6.6-0.8-9.4-2.3-2.8-1.5-5.1-3.6-6.8-6.3-1.7-2.7-2.5-5.9-2.5-9.5 0-3.7 0.8-6.9 2.5-9.6 1.7-2.7 3.9-4.8 6.8-6.3 2.8-1.5 6-2.2 9.4-2.2 3.2 0 5.9 0.6 8.4 1.9 2.4 1.3 4.3 3.3 5.6 5.9 1.3 2.7 2 6.1 2 10.3 0 4.1-0.7 7.5-2 10.2-1.3 2.7-3.2 4.7-5.6 6-2.4 1.3-5.2 1.9-8.4 1.9zm1.7 15.9c-3.5 0-6.9-0.4-10.2-1.3-3.3-0.9-6-2.1-8.2-3.9l4.3-7.8c1.6 1.3 3.6 2.3 6 3.1 2.4 0.8 4.8 1.1 7.2 1.1 3.9 0 6.7-0.9 8.4-2.6 1.7-1.7 2.6-4.3 2.6-7.7v-5.5l0.7-9.4-0.1-9.5v-8.1h10.3v31.2c0 7-1.8 12.1-5.4 15.4-3.6 3.4-8.8 5-15.6 5zm0.5-24.8c1.9 0 3.6-0.4 5.1-1.1 1.5-0.8 2.6-1.8 3.5-3.2 0.8-1.4 1.3-3 1.3-4.8 0-1.9-0.4-3.5-1.3-4.8-0.8-1.4-2-2.4-3.5-3.2q-2.2-1.2-5.1-1.2-2.8 0-5.1 1.2c-1.5 0.8-2.7 1.8-3.5 3.2-0.9 1.4-1.3 3-1.3 4.8 0 1.8 0.4 3.4 1.3 4.8 0.9 1.4 2 2.5 3.5 3.2 1.5 0.7 3.2 1.1 5.1 1.1z"/><path fill-rule="evenodd" class="b" d="m199.8 77l3.2-2 31 31.2 34.7-99.6 17.7 11.6-45.2 105.1h-10.5z"/></svg>